<?xml version="1.0" encoding="UTF-8"?>
<svg id="Capa_2" data-name="Capa 2" xmlns="http://www.w3.org/2000/svg" viewBox="0 0 84.14 84.14">
  <defs>
    <style>
      .cls-1 {
        fill: #ff6c37;
      }
    </style>
  </defs>
  <g id="Capa_1-2" data-name="Capa 1">
    <g>
      <path class="cls-1" d="M60.74,28.04c-.42,.14-.61,.41-.61,.83,0,.4,.23,.63,.62,.76,2.67,.86,5.34,1.74,8.01,2.61,1.12,.36,2.07-.19,2.25-1.34,.12-.74,.15-1.49,.23-2.38-.07-.5-.14-1.13-.26-1.75-.21-1.17-1.11-1.7-2.25-1.33-2.67,.86-5.34,1.74-8.01,2.61Z"/>
      <path class="cls-1" d="M57.48,26.4c.13,.39,.43,.64,.8,.55,.28-.07,.65-.31,.73-.56,.93-2.71,1.82-5.44,2.69-8.17,.31-.98-.23-1.87-1.24-2.08-.71-.15-1.45-.19-2.22-.29-.74,.1-1.53,.16-2.3,.33-.9,.2-1.42,1.08-1.15,1.94,.88,2.77,1.79,5.53,2.69,8.29Z"/>
      <path class="cls-1" d="M59.46,26.52c-.19,.37-.2,.78,.15,1.01,.22,.15,.64,.26,.85,.15,2.61-1.29,5.2-2.62,7.78-3.95,.57-.29,.84-.78,.91-1.45-.13-.32-.22-.67-.41-.96-.77-1.18-1.75-2.15-2.91-2.94-1.03-.7-2-.45-2.57,.66-.76,1.49-1.53,2.97-2.28,4.46-.51,1-1.02,2.01-1.52,3.02Z"/>
      <path class="cls-1" d="M48.63,23.93c2.4,1.22,4.81,2.44,7.21,3.67,.36,.19,.69,.3,1.03,0,.35-.32,.4-.69,.18-1.11-1.3-2.54-2.58-5.08-3.88-7.62-.28-.54-.75-.82-1.56-.89-.21,.09-.61,.2-.94,.42-1.09,.72-2,1.63-2.76,2.7-.86,1.22-.63,2.15,.71,2.83Z"/>
      <path class="cls-1" d="M0,0V84.14H84.14V0H0ZM24.52,76.26c-5.05,.04-8.66-.84-12.55-4.93l4.37-5.01c2.77,2.69,5.86,3.17,8.22,3.17,2.61,0,4.41-.92,4.41-2.49,0-1.4-1.6-2.29-4.69-2.57-6.14-.56-11.43-2.13-11.43-9.1,0-5.93,5.82-8.5,11.75-8.5,4.21,0,7.5,.96,10.51,3.33l-3.93,5.01c-1.93-1.44-4.13-1.92-6.58-1.92-1.93,0-3.81,.6-3.81,2.08,0,1.93,1.89,2.21,4.65,2.49,5.57,.6,11.39,2.85,11.39,9.3s-6.02,9.1-12.31,9.14Zm15.82-39.31h-8V19.93l-7.31,8.65h-1.43l-7.14-8.61v16.98h-8V8.38h8.45l7.51,9.67,7.51-9.67h8.41v28.57Zm6.71-13.44c0-1.57,.22-3.13,.63-4.63,2.66-2.84,6.41-4.65,10.59-4.62,7.86-.03,14.11,6.25,14.56,13.63,.13,2.09-.19,4.07-.83,5.87-.91,1.03-2,1.93-3.26,2.64,.19-.3,.3-.65,.44-.98-.07-.73-.41-1.21-1.01-1.52-1.5-.77-3.01-1.53-4.51-2.3-1.02-.52-2.04-1.04-3.06-1.55-.37-.19-.72-.17-1.03,.15-.27,.28-.31,.58-.13,.92,1.19,2.33,2.37,4.66,3.57,6.99-.53,.05-1.07,.08-1.63,.08-.03,0-.05,0-.08,0-.74-2.32-1.49-4.63-2.23-6.94-.12-.37-.4-.53-.78-.53-.39,0-.69,.17-.82,.56-.07,.21-.11,.43-.18,.65-.57,1.75-1.14,3.49-1.7,5.24-.44-.17-.85-.35-1.25-.56,.9-1.76,1.8-3.53,2.71-5.28,.21-.41,.25-.78-.07-1.14-.34-.38-.72-.31-1.12-.1-1.93,.99-3.86,1.97-5.78,2.96-.31-.4-.59-.82-.85-1.25,2.17-.7,4.35-1.4,6.52-2.1,.44-.14,.67-.41,.66-.86,0-.45-.24-.73-.69-.83-.2-.04-.4-.1-.59-.17-2.48-.8-4.95-1.62-7.43-2.41-.18-.06-.36-.08-.53-.09-.06-.6-.1-1.2-.1-1.81Zm27.54,39.87c0,7.63-4.85,13.14-13.77,13.14-8.38,0-13.27-4.06-13.27-13.14h8c.08,4.35,2.49,6.01,5.35,6.01,3.44,0,5.47-2.11,5.47-6.05v-16.46h8.21v16.5Zm.44-35.41c-.45-8.9-7.74-15.92-16.73-15.95-3.09,0-6.04,.85-8.59,2.35,2.33-3.45,6.2-5.86,11.66-5.86,9.59,0,14.37,7.52,14.29,14.96-.02,1.52-.23,3.04-.63,4.5Z"/>
    </g>
  </g>
</svg>