<?xml version="1.0" encoding="UTF-8"?>
<svg id="Capa_2" data-name="Capa 2" xmlns="http://www.w3.org/2000/svg" viewBox="0 0 84.14 84.14">
  <defs>
    <style>
      .cls-1 {
        fill: #00acd8;
      }
    </style>
  </defs>
  <g id="Capa_1-2" data-name="Capa 1">
    <g>
      <path class="cls-1" d="M63.6,16.77l-.02,.02c-.14,.15-.25,.34-.36,.52l-.56,1.02c-1.28,2.46-2.31,5.18-2.22,8.01,.08,2.65,1.53,5.9,3.42,7.74,.93-.05,2.79-1.38,3.51-1.92,2.43-1.89,3.76-3.89,5.12-6.64-.33-.62-.65-1.24-1.02-1.84-1.85-2.98-4.71-5.52-7.88-6.91Zm2.25,10.74c-2.51-.4-2.24-4.27,.5-4.16,2.73,.37,2.19,4.51-.5,4.16Z"/>
      <path class="cls-1" d="M0,0V84.14H84.14V0H0ZM24.52,76.26c-5.05,.04-8.66-.84-12.55-4.93l4.37-5.01c2.77,2.69,5.86,3.17,8.22,3.17,2.61,0,4.41-.92,4.41-2.49,0-1.4-1.6-2.29-4.69-2.57-6.14-.56-11.43-2.13-11.43-9.1,0-5.93,5.81-8.5,11.75-8.5,4.21,0,7.5,.96,10.51,3.33l-3.93,5.01c-1.93-1.44-4.13-1.92-6.58-1.92-1.93,0-3.81,.6-3.81,2.08,0,1.93,1.88,2.21,4.65,2.49,5.57,.6,11.39,2.85,11.39,9.3s-6.02,9.1-12.31,9.14Zm15.82-39.31h-8V19.93l-7.31,8.65h-1.43l-7.14-8.61v16.98h-8V8.38h8.45l7.51,9.67,7.51-9.67h8.41v28.57Zm6.71-13.44c0-1.01,.09-2.03,.27-3.02,1.03-.25,2.1-.42,3.22-.51,.69-.05,1.39-.03,2.08-.03,.35,0,.57,.15,.57,.4,.02,1.16,.3,2.28,.79,3.38,.1,.21-.06,.35-.33,.39-.29,.04-.59,.03-.89,.03-1.9,0-3.79,0-5.69,0,0-.21-.02-.42-.02-.64Zm1.19,4.08c1.51-.09,2.98-.43,4.37-1.05,.87-.39,1.69-.87,2.38-1.54,.11-.11,.21-.26,.46-.23,.22,1.26,.47,2.53,1,3.72,.53,1.2,1.29,2.24,2.2,3.28-2.99,.87-5.9,1.12-8.85,.84-.02,0-.04,0-.06,0-1.04-1.49-1.77-3.19-2.2-4.99,.24,0,.48,0,.72-.02Zm26.35,35.79c0,7.63-4.85,13.14-13.77,13.14-8.38,0-13.27-4.06-13.27-13.14h8c.08,4.35,2.49,6.01,5.35,6.01,3.44,0,5.47-2.11,5.47-6.05v-16.46h8.21v16.5Zm-13.22-25.2c-4.14,0-7.33-1.3-9.65-3.35,2.41,.41,4.91,.45,7.51,.12l1.43-.23c.35-.07,.69-.14,1.01-.27-.13-.9-.85-2.09-1.27-2.92-.85-1.68-1.33-3.07-1.47-4.87l-.05-1.65c.16-1.43,.46-2.84,.97-4.21,.5-1.35,1.13-2.66,1.54-4.04-1.2-.52-3.66-.78-4.93-.83-2.78-.06-5.59,.36-8.21,1.23,.4-.99,.89-1.95,1.48-2.83l.51-.09c3.19-.41,7.04-.34,10.2,.33,1.03,.22,1.9,.65,1.28-.81-.72-1.72-2.91-3.29-5.42-4.46,1.5-.51,3.18-.8,5.06-.8,9.59,0,14.37,7.52,14.29,14.96-.08,7.36-4.5,14.71-14.29,14.71Z"/>
    </g>
  </g>
</svg>