<?xml version="1.0" encoding="UTF-8"?>
<svg id="Capa_2" data-name="Capa 2" xmlns="http://www.w3.org/2000/svg" viewBox="0 0 84.14 84.14">
  <defs>
    <style>
      .cls-1 {
        fill: #88431d;
      }
    </style>
  </defs>
  <g id="Capa_1-2" data-name="Capa 1">
    <path class="cls-1" d="M0,0V84.14H84.14V0H0ZM24.52,76.26c-5.05,.04-8.66-.84-12.55-4.93l4.37-5.01c2.77,2.69,5.86,3.17,8.22,3.17,2.61,0,4.41-.92,4.41-2.49,0-1.4-1.6-2.29-4.69-2.57-6.14-.56-11.43-2.13-11.43-9.1,0-5.93,5.82-8.5,11.75-8.5,4.21,0,7.5,.96,10.51,3.33l-3.93,5.01c-1.93-1.44-4.13-1.92-6.58-1.92-1.93,0-3.81,.6-3.81,2.08,0,1.93,1.88,2.21,4.65,2.49,5.57,.6,11.39,2.85,11.39,9.3s-6.02,9.1-12.31,9.14Zm15.82-39.31h-8V19.93l-7.31,8.65h-1.43l-7.14-8.61v16.98h-8V8.38h8.45l7.51,9.67,7.51-9.67h8.41v28.57ZM61.37,8.51c4.79,0,8.39,1.88,10.77,4.69-.97,.12-1.94,.28-2.89,.5,.22,.08,.44,.18,.64,.3,.45,.26,.86,.61,1.18,1.02,.65,.81,.99,1.79,1.06,2.73,.07,.95-.08,1.88-.52,2.72-.37-.87-.62-1.66-.95-2.37-.32-.71-.66-1.35-1.09-1.87-.05-.07-.14-.14-.24-.23-1.37-1.16-3.29-1.46-4.95-.79-2.13,.85-4.17,1.93-6.04,3.24,.86-.02,1.78,.23,2.53,.77,.81,.59,1.37,1.47,1.59,2.37,.22,.9,.17,1.82-.19,2.64-.45-.78-.79-1.47-1.2-2.05-.4-.58-.83-1.04-1.32-1.41-.5-.36-1.07-.62-1.75-.82l-1.19-.36c-1.36,1.1-2.62,2.33-3.74,3.69-1.95,2.38-4.08,6.59-.33,8.32,.49,.23,1.03,.32,1.56,.28l19.9-1.57c-2.02,4.48-6.18,7.88-12.83,7.88-9.79,0-14.33-7.19-14.33-14.67s4.7-15,14.33-15Zm13.21,54.87c0,7.63-4.85,13.14-13.77,13.14-8.38,0-13.27-4.06-13.27-13.14h8c.08,4.35,2.49,6.01,5.35,6.01,3.44,0,5.47-2.11,5.47-6.05v-16.46h8.21v16.5Z"/>
  </g>
</svg>