<?xml version="1.0" encoding="UTF-8"?>
<svg id="Capa_2" data-name="Capa 2" xmlns="http://www.w3.org/2000/svg" viewBox="0 0 84.14 84.14">
  <defs>
    <style>
      .cls-1 {
        fill: #d7282f;
      }
    </style>
  </defs>
  <g id="Capa_1-2" data-name="Capa 1">
    <path class="cls-1" d="M0,0V84.14H84.14V0H0ZM24.52,76.26c-5.05,.04-8.66-.84-12.55-4.93l4.37-5.01c2.77,2.69,5.86,3.17,8.22,3.17,2.61,0,4.41-.92,4.41-2.49,0-1.4-1.6-2.29-4.69-2.57-6.14-.56-11.43-2.13-11.43-9.1,0-5.93,5.81-8.5,11.75-8.5,4.21,0,7.5,.96,10.51,3.33l-3.93,5.01c-1.93-1.44-4.13-1.92-6.58-1.92-1.93,0-3.81,.6-3.81,2.08,0,1.93,1.88,2.21,4.65,2.49,5.57,.6,11.39,2.85,11.39,9.3s-6.02,9.1-12.31,9.14Zm15.82-39.31h-8V19.93l-7.31,8.65h-1.43l-7.14-8.61v16.98h-8V8.38h8.45l7.51,9.67,7.51-9.67h8.41v28.57Zm34.25,26.43c0,7.63-4.85,13.14-13.77,13.14-8.38,0-13.27-4.06-13.27-13.14h8c.08,4.35,2.49,6.01,5.35,6.01,3.44,0,5.47-2.11,5.47-6.05v-16.46h8.21v16.5Zm-13.22-25.2c-2.95,0-5.42-.66-7.44-1.78v-2.17c.17,.02,.34,.02,.52,.02,2.38,0,4.49-1.52,5.25-3.77,.19-.57,.4-1.43,.41-1.44l.07-.27,.23,.16s4.74,3.17,8.21,3.17c.45,0,.87-.05,1.23-.16,.5-.14,.82-.47,1.01-1.03,1.61-4.78-1.48-10.63-5.27-13.32-.73-.51-2.17-1.38-3.59-1.36,.77,.93,.93,1.86,.44,2.64-.59,.94-1.28,1.13-1.76,1.13-.94,0-1.8-.72-2.25-1.33-1.06-1.45-2.53-1.76-3.58-1.76-.41,0-.84,.05-1.28,.16-1.75,.43-2.85,1.64-3.09,3.42-.18,1.34,.53,2.88,1.63,3.5,1.16,.65,2.37,.59,3.48-.17,.83-.57,1.21-1.42,1.08-2.45-.1-.8-.43-1.43-.95-1.76-.22-.14-.28-.43-.15-.65,.09-.14,.24-.23,.41-.23,.08,0,.17,.02,.24,.07,1.17,.68,1.77,1.75,1.78,3.18,.01,1.67-.74,2.93-2.23,3.76-.79,.44-1.64,.66-2.51,.66-1.99,0-3.83-1.17-4.81-3.06-.83-1.61-.97-3.42-.4-5.11,.61-1.82,1.98-3.32,3.85-4.21,1.08-.51,2.3-.79,3.53-.79,.83,0,1.65,.12,2.45,.35-.2-.75-.54-1.44-1.02-2.06-.54-.69-1.21-1.24-1.97-1.62,1.83-.87,3.98-1.38,6.46-1.38,9.59,0,14.37,7.52,14.29,14.96-.08,7.36-4.5,14.71-14.29,14.71Z"/>
  </g>
</svg>