<?xml version="1.0" encoding="UTF-8"?>
<svg id="Capa_2" data-name="Capa 2" xmlns="http://www.w3.org/2000/svg" viewBox="0 0 84.14 84.14">
  <defs>
    <style>
      .cls-1 {
        fill: #00b189;
      }
    </style>
  </defs>
  <g id="Capa_1-2" data-name="Capa 1">
    <path class="cls-1" d="M0,0V84.14H84.14V0H0ZM24.52,76.26c-5.05,.04-8.66-.84-12.55-4.93l4.37-5.01c2.77,2.69,5.86,3.17,8.22,3.17,2.61,0,4.41-.92,4.41-2.49,0-1.4-1.6-2.29-4.69-2.57-6.14-.56-11.43-2.13-11.43-9.1,0-5.93,5.81-8.5,11.75-8.5,4.21,0,7.5,.96,10.51,3.33l-3.93,5.01c-1.93-1.44-4.13-1.92-6.58-1.92-1.93,0-3.81,.6-3.81,2.08,0,1.93,1.88,2.21,4.65,2.49,5.57,.6,11.39,2.85,11.39,9.31s-6.02,9.1-12.31,9.14Zm15.82-39.31h-8V19.93l-7.31,8.65h-1.43l-7.14-8.61v16.98h-8V8.38h8.45l7.51,9.67,7.51-9.67h8.41v28.57Zm34.25,26.43c0,7.63-4.85,13.14-13.77,13.14-8.38,0-13.27-4.06-13.27-13.14h8c.08,4.35,2.49,6.01,5.35,6.01,3.44,0,5.47-2.11,5.47-6.05v-16.46h8.21v16.5Zm-13.22-25.2c-5.52,0-9.38-2.29-11.68-5.63,.14-.18,.28-.36,.44-.53,.2-.22,.41-.44,.64-.65,.48-.44,1-.84,1.55-1.19,.02-.01,.04-.02,.06-.04,.03,.02,.08,.08,.1,.1,.17,.17,.08,.07,.31,.3l.22,.18c.58,.47,1.2,.9,1.86,1.25,.44,.23,.89,.43,1.36,.59,1.43,.49,2.89,.6,4.38,.34,.93-.16,1.81-.45,2.66-.84,1.28-.59,2.44-1.38,3.5-2.3,.3-.27,.6-.54,.88-.83,.19-.2,.38-.4,.56-.61,.15-.17,.3-.35,.44-.52,.19-.23,.36-.47,.53-.71,.2-.29,.37-.59,.54-.9,.22-.4,.44-.8,.63-1.22,.31-.65,.58-1.31,.79-1.99,.35-1.11,.53-2.25,.51-3.41,0-.78-.1-1.56-.25-2.32-.08-.39-.16-.77-.27-1.15,0-.02,0-.05-.04-.06-.01,0-.02,.02-.04,.03-.16,.15-.33,.28-.5,.4-.5,.35-1.04,.6-1.61,.79-.62,.2-1.25,.32-1.89,.38-.65,.07-1.3,.08-1.95,.06-.66-.02-1.32-.06-1.97-.11-.72-.06-1.45-.12-2.17-.15-.68-.03-1.36-.04-2.05,0-.6,.04-1.19,.12-1.77,.28-1.37,.36-2.63,.97-3.78,1.81-.55,.4-1.05,.85-1.49,1.36-.25,.29-.48,.59-.69,.91-.22,.34-.41,.7-.57,1.08-.51,1.21-.32,2.08-.06,3.36,0,.02,.01,.04,.02,.07,.03-.02,.05-.03,.07-.04,.81-.5,1.66-.94,2.53-1.32,1.34-.59,2.72-1.04,4.15-1.37,1.04-.25,2.1-.43,3.17-.54,.52-.05,1.04-.09,1.57-.14,.62-.05,1.23-.1,1.84-.2,.46-.08,.92-.17,1.36-.32,.65-.21,1.16-.51,1.71-.94,.01-.01,.18-.12,.18-.12,0,.01-.15,.21-.16,.22-.32,.44-.7,.84-1.06,1.11-.44,.34-.93,.6-1.44,.82-.57,.24-1.15,.4-1.75,.53-.55,.12-1.1,.19-1.65,.25-.34,.04-.68,.08-1.02,.14-1.1,.19-2.17,.5-3.22,.89-1.11,.42-2.18,.94-3.21,1.53-1.3,.74-2.53,1.57-3.73,2.47-.49,.36-.96,.75-1.43,1.12-.97-2.12-1.44-4.49-1.44-6.9,0-7.48,4.7-15,14.33-15s14.37,7.52,14.29,14.96c-.08,7.36-4.5,14.71-14.29,14.71Z"/>
  </g>
</svg>